<svg xmlns="http://www.w3.org/2000/svg" viewBox="0 0 720 480" role="img" aria-labelledby="title desc">
  <title id="title">Green dress</title>
  <desc id="desc">A green wrap dress on a wooden hanger beside a straw hat.</desc>
  <rect width="720" height="480" fill="#fffdf7"/>
  <path d="M356 97c0-42 68-42 68 0" fill="none" stroke="#8d6333" stroke-width="12" stroke-linecap="round"/>
  <path d="M221 142h338" stroke="#8d6333" stroke-width="14" stroke-linecap="round"/>
  <path d="M323 143c-21 58-55 106-100 142l30 132h270l32-132c-44-36-78-84-99-142h-41l-28 69-28-69z" fill="#255c45"/>
  <path d="M323 143l64 69 69-69M275 415c31-95 48-186 51-272M498 415c-33-94-50-185-51-272" fill="none" stroke="#9caf9c" stroke-width="7" opacity=".7"/>
  <circle cx="574" cy="147" r="56" fill="#d8a84e" opacity=".45"/>
  <circle cx="574" cy="147" r="33" fill="none" stroke="#c99757" stroke-width="9"/>
  <path d="M138 415c16-64 35-110 57-138M128 340c39-28 73-31 104-9" fill="none" stroke="#9caf9c" stroke-width="13" stroke-linecap="round"/>
</svg>
